<svg xmlns="http://www.w3.org/2000/svg" xmlns:xlink="http://www.w3.org/1999/xlink" width="38.732" height="46.958" viewBox="0 0 38.732 46.958">
  <defs>
    <clipPath id="clip-path">
      <rect id="Rectangle_2036" data-name="Rectangle 2036" width="38.732" height="46.958" fill="#222324"/>
    </clipPath>
  </defs>
  <g id="Group_1" data-name="Group 1" clip-path="url(#clip-path)">
    <path id="Path_1" data-name="Path 1" d="M20.13,32.1c2.687,3.1,6.535,7.828,6.535,7.828a23.314,23.314,0,0,1,5.095-.455c-1.226,1.08-5.512,4.673-5.512,4.673s-10.38-6.423-10.433-6.371c1.987-1.951,3.943-4.322,4.315-5.676M36.92,10.309a2.644,2.644,0,0,1,1.619,3.5,3.054,3.054,0,0,1-3.574,1.825,8.755,8.755,0,0,1-1.157,1.158c-.108.1-.226.182-.334.273.015.054.027.116.042.169a2.707,2.707,0,0,1-.489,2.057,2.977,2.977,0,0,1-1.848,1.172,2.837,2.837,0,0,1-3.191-1.588,11.253,11.253,0,0,1-1.131-.067l-.61-.079-.011-.584a6.233,6.233,0,0,0-.941-3.2c-.012.049-.039.1-.051.143a12.555,12.555,0,0,1-10.922,7.357,21.575,21.575,0,0,0,5.807.505c.172,1.772-.068,10.546-9.2,17.277-.657.507-3.556,2.473-3.556,2.473a19.923,19.923,0,0,1,2.491,4.259C8.889,46.565,0,43.078,0,43.078a21.422,21.422,0,0,0,8.743-12.8A17.18,17.18,0,0,0,4.961,15.621c-1.292-1.5-2.81-2.97-3.229-4.965C1.015,7.183,5.157,4.879,8.1,4.031c2.335-.679,2.351-1.912,2.057-2.656,3.314.042.991,3.542,2.562,4.987a7.142,7.142,0,0,1,2.69,4.649,5.733,5.733,0,0,1-.742,3.724,6.934,6.934,0,0,1-2.014,1.938,20.218,20.218,0,0,0,10.855-3.683,7.4,7.4,0,0,0-3.3-1.3l-.607-.08L19.573,11A7.863,7.863,0,0,1,19.612,9.9a2.826,2.826,0,0,1-1.331-3.372A3.026,3.026,0,0,1,22.04,4.667c.039.016.081.028.119.043.116-.106.223-.21.34-.328A11.557,11.557,0,0,1,23.873,3.4a2.988,2.988,0,0,1,.473-2.046,3.081,3.081,0,0,1,4.2-.872,2.82,2.82,0,0,1,1.225,1.771,8.635,8.635,0,0,1,2.848.939,3.157,3.157,0,0,1,2.125-.719,2.877,2.877,0,0,1,2.018.979,2.722,2.722,0,0,1,.661,2.1A3,3,0,0,1,36.4,7.495a7.82,7.82,0,0,1,.517,2.814M27.989,17l.321,0a7.073,7.073,0,0,0,4.425-1.641,6.618,6.618,0,0,0,2.393-4.577,6.249,6.249,0,0,0-1.557-4.648A6.7,6.7,0,0,0,28.543,3.9a7.086,7.086,0,0,0-4.637,1.735A6.691,6.691,0,0,0,21.653,9.78l-.045.324.314.1a9.088,9.088,0,0,1,6,6.48Z" transform="translate(0 0)" fill="#222324"/>
  </g>
</svg>
